<?xml version="1.0" encoding="utf-8" standalone="no"?>
<!DOCTYPE svg PUBLIC "-//W3C//DTD SVG 1.1//EN"
  "http://www.w3.org/Graphics/SVG/1.1/DTD/svg11.dtd">
<svg xmlns:xlink="http://www.w3.org/1999/xlink" width="1108.8pt" height="554.756719pt" viewBox="0 0 1108.8 554.756719" xmlns="http://www.w3.org/2000/svg" version="1.1">
 <metadata>
  <rdf:RDF xmlns:dc="http://purl.org/dc/elements/1.1/" xmlns:cc="http://creativecommons.org/ns#" xmlns:rdf="http://www.w3.org/1999/02/22-rdf-syntax-ns#">
   <cc:Work>
    <dc:type rdf:resource="http://purl.org/dc/dcmitype/StillImage"/>
    <dc:format>image/svg+xml</dc:format>
    <dc:creator>
     <cc:Agent>
      <dc:title>Matplotlib v3.11.1, https://matplotlib.org/</dc:title>
     </cc:Agent>
    </dc:creator>
   </cc:Work>
  </rdf:RDF>
 </metadata>
 <defs>
  <style type="text/css">*{stroke-linejoin: round; stroke-linecap: butt}</style>
 </defs>
 <g id="figure_1">
  <g id="patch_1">
   <path d="M 0 554.756719 
L 1108.8 554.756719 
L 1108.8 0 
L 0 0 
z
" style="fill: #ffffff"/>
  </g>
  <g id="patch_2">
   <path d="M 7.2 547.556719 
L 525.6 547.556719 
L 525.6 29.156719 
L 7.2 29.156719 
z
" style="fill: #ffffff"/>
  </g>
  <g id="pane3d_1">
   <g id="patch_3">
    <path d="M 108.47018 408.013186 
L 231.894133 302.10695 
L 230.143197 98.263449 
L 101.043358 195.17029 
" style="fill: #f2f2f2; opacity: 0.5; stroke: #f2f2f2; stroke-linejoin: miter"/>
   </g>
  </g>
  <g id="pane3d_2">
   <g id="patch_4">
    <path d="M 231.894133 302.10695 
L 433.954898 361.62606 
L 440.983588 152.659784 
L 230.143197 98.263449 
" style="fill: #e6e6e6; opacity: 0.5; stroke: #e6e6e6; stroke-linejoin: miter"/>
   </g>
  </g>
  <g id="pane3d_3">
   <g id="patch_5">
    <path d="M 108.47018 408.013186 
L 319.312731 475.63345 
L 433.954898 361.62606 
L 231.894133 302.10695 
" style="fill: #ececec; opacity: 0.5; stroke: #ececec; stroke-linejoin: miter"/>
   </g>
  </g>
  <g id="grid3d_1">
   <g id="Line3DCollection_1">
    <path d="M 145.252707 419.809876 
L 267.213086 312.510517 
L 266.950167 107.759562 
" style="fill: none; stroke: #b0b0b0; stroke-width: 0.8"/>
    <path d="M 280.163138 463.077607 
L 396.507679 350.59559 
L 401.860439 142.566101 
" style="fill: none; stroke: #b0b0b0; stroke-width: 0.8"/>
   </g>
  </g>
  <g id="grid3d_2">
   <g id="Line3DCollection_2">
    <path d="M 125.552912 176.772564 
L 131.85039 387.951359 
L 341.070812 453.995845 
" style="fill: none; stroke: #b0b0b0; stroke-width: 0.8"/>
    <path d="M 208.124726 114.791281 
L 210.795998 320.2106 
L 414.396083 381.076577 
" style="fill: none; stroke: #b0b0b0; stroke-width: 0.8"/>
   </g>
  </g>
  <g id="grid3d_3">
   <g id="Line3DCollection_3">
    <path d="M 433.954898 361.62606 
L 231.894133 302.10695 
L 108.47018 408.013186 
" style="fill: none; stroke: #b0b0b0; stroke-width: 0.8"/>
    <path d="M 435.313068 321.247007 
L 231.555376 262.669035 
L 107.036462 366.924735 
" style="fill: none; stroke: #b0b0b0; stroke-width: 0.8"/>
    <path d="M 436.694414 280.178951 
L 231.211046 222.582152 
L 105.577601 325.115689 
" style="fill: none; stroke: #b0b0b0; stroke-width: 0.8"/>
    <path d="M 438.099533 238.404106 
L 230.861002 181.830148 
L 104.092928 282.566922 
" style="fill: none; stroke: #b0b0b0; stroke-width: 0.8"/>
    <path d="M 439.529044 195.904066 
L 230.505102 140.396332 
L 102.581752 239.25863 
" style="fill: none; stroke: #b0b0b0; stroke-width: 0.8"/>
    <path d="M 440.983588 152.659784 
L 230.143197 98.263449 
L 101.043358 195.17029 
" style="fill: none; stroke: #b0b0b0; stroke-width: 0.8"/>
   </g>
  </g>
  <g id="axis3d_1">
   <g id="line2d_1">
    <path d="M 108.47018 408.013186 
L 319.312731 475.63345 
" style="fill: none; stroke: #000000; stroke-width: 0.8; stroke-linecap: square"/>
   </g>
   <g id="xtick_1">
    <g id="line2d_2">
     <path d="M 146.291337 418.896101 
L 143.1722 421.640283 
" style="fill: none; stroke: #000000; stroke-width: 0.8; stroke-linecap: square"/>
    </g>
    <g id="text_1">
     <!-- 0 -->
     <g transform="translate(126.936843 454.131521) rotate(-45) scale(0.21 -0.21)">
      <defs>
       <path id="DejaVuSans-13" d="M 2034 4250 
Q 1547 4250 1301 3770 
Q 1056 3291 1056 2328 
Q 1056 1369 1301 889 
Q 1547 409 2034 409 
Q 2525 409 2770 889 
Q 3016 1369 3016 2328 
Q 3016 3291 2770 3770 
Q 2525 4250 2034 4250 
z
M 2034 4750 
Q 2819 4750 3233 4129 
Q 3647 3509 3647 2328 
Q 3647 1150 3233 529 
Q 2819 -91 2034 -91 
Q 1250 -91 836 529 
Q 422 1150 422 2328 
Q 422 3509 836 4129 
Q 1250 4750 2034 4750 
z
" transform="scale(0.015625)"/>
      </defs>
      <use xlink:href="#DejaVuSans-13"/>
     </g>
    </g>
   </g>
   <g id="xtick_2">
    <g id="line2d_3">
     <path d="M 281.155421 462.118267 
L 278.175392 464.999362 
" style="fill: none; stroke: #000000; stroke-width: 0.8; stroke-linecap: square"/>
    </g>
    <g id="text_2">
     <!-- 1 -->
     <g transform="translate(261.844387 497.775413) rotate(-45) scale(0.21 -0.21)">
      <defs>
       <path id="DejaVuSans-14" d="M 794 531 
L 1825 531 
L 1825 4091 
L 703 3866 
L 703 4441 
L 1819 4666 
L 2450 4666 
L 2450 531 
L 3481 531 
L 3481 0 
L 794 0 
L 794 531 
z
" transform="scale(0.015625)"/>
      </defs>
      <use xlink:href="#DejaVuSans-14"/>
     </g>
    </g>
   </g>
  </g>
  <g id="axis3d_2">
   <g id="line2d_4">
    <path d="M 433.954898 361.62606 
L 319.312731 475.63345 
" style="fill: none; stroke: #000000; stroke-width: 0.8; stroke-linecap: square"/>
   </g>
   <g id="xtick_3">
    <g id="line2d_5">
     <path d="M 339.333477 453.447421 
L 344.548678 455.0937 
" style="fill: none; stroke: #000000; stroke-width: 0.8; stroke-linecap: square"/>
    </g>
    <g id="text_3">
     <!-- 0 -->
     <g transform="translate(352.124196 468.213852) rotate(-337.5) scale(0.21 -0.21)">
      <use xlink:href="#DejaVuSans-13"/>
     </g>
    </g>
   </g>
   <g id="xtick_4">
    <g id="line2d_6">
     <path d="M 412.707938 380.571908 
L 417.775354 382.086805 
" style="fill: none; stroke: #000000; stroke-width: 0.8; stroke-linecap: square"/>
    </g>
    <g id="text_4">
     <!-- 1 -->
     <g transform="translate(425.060275 394.834436) rotate(-337.5) scale(0.21 -0.21)">
      <use xlink:href="#DejaVuSans-14"/>
     </g>
    </g>
   </g>
  </g>
  <g id="axis3d_3">
   <g id="line2d_7">
    <path d="M 433.954898 361.62606 
L 440.983588 152.659784 
" style="fill: none; stroke: #000000; stroke-width: 0.8; stroke-linecap: square"/>
   </g>
   <g id="xtick_5">
    <g id="line2d_8">
     <path d="M 432.280182 361.132755 
L 437.307251 362.61353 
" style="fill: none; stroke: #000000; stroke-width: 0.8; stroke-linecap: square"/>
    </g>
    <g id="text_5">
     <!-- 0.0 -->
     <g transform="translate(447.434237 354.660102) scale(0.21 -0.21)">
      <defs>
       <path id="DejaVuSans-11" d="M 684 794 
L 1344 794 
L 1344 0 
L 684 0 
L 684 794 
z
" transform="scale(0.015625)"/>
      </defs>
      <use xlink:href="#DejaVuSans-13"/>
      <use xlink:href="#DejaVuSans-11" transform="translate(63.625 0)"/>
      <use xlink:href="#DejaVuSans-13" transform="translate(95.40625 0)"/>
     </g>
    </g>
   </g>
   <g id="xtick_6">
    <g id="line2d_9">
     <path d="M 433.623792 320.761359 
L 438.694594 322.219156 
" style="fill: none; stroke: #000000; stroke-width: 0.8; stroke-linecap: square"/>
    </g>
    <g id="text_6">
     <!-- 0.2 -->
     <g transform="translate(448.904757 314.310883) scale(0.21 -0.21)">
      <defs>
       <path id="DejaVuSans-15" d="M 1228 531 
L 3431 531 
L 3431 0 
L 469 0 
L 469 531 
Q 828 903 1448 1529 
Q 2069 2156 2228 2338 
Q 2531 2678 2651 2914 
Q 2772 3150 2772 3378 
Q 2772 3750 2511 3984 
Q 2250 4219 1831 4219 
Q 1534 4219 1204 4116 
Q 875 4013 500 3803 
L 500 4441 
Q 881 4594 1212 4672 
Q 1544 4750 1819 4750 
Q 2544 4750 2975 4387 
Q 3406 4025 3406 3419 
Q 3406 3131 3298 2873 
Q 3191 2616 2906 2266 
Q 2828 2175 2409 1742 
Q 1991 1309 1228 531 
z
" transform="scale(0.015625)"/>
      </defs>
      <use xlink:href="#DejaVuSans-13"/>
      <use xlink:href="#DejaVuSans-11" transform="translate(63.625 0)"/>
      <use xlink:href="#DejaVuSans-15" transform="translate(95.40625 0)"/>
     </g>
    </g>
   </g>
   <g id="xtick_7">
    <g id="line2d_10">
     <path d="M 434.990321 279.701295 
L 440.105624 281.13511 
" style="fill: none; stroke: #000000; stroke-width: 0.8; stroke-linecap: square"/>
    </g>
    <g id="text_7">
     <!-- 0.4 -->
     <g transform="translate(450.40034 273.273962) scale(0.21 -0.21)">
      <defs>
       <path id="DejaVuSans-17" d="M 2419 4116 
L 825 1625 
L 2419 1625 
L 2419 4116 
z
M 2253 4666 
L 3047 4666 
L 3047 1625 
L 3713 1625 
L 3713 1100 
L 3047 1100 
L 3047 0 
L 2419 0 
L 2419 1100 
L 313 1100 
L 313 1709 
L 2253 4666 
z
" transform="scale(0.015625)"/>
      </defs>
      <use xlink:href="#DejaVuSans-13"/>
      <use xlink:href="#DejaVuSans-11" transform="translate(63.625 0)"/>
      <use xlink:href="#DejaVuSans-17" transform="translate(95.40625 0)"/>
     </g>
    </g>
   </g>
   <g id="xtick_8">
    <g id="line2d_11">
     <path d="M 436.380361 237.93479 
L 441.540952 239.343577 
" style="fill: none; stroke: #000000; stroke-width: 0.8; stroke-linecap: square"/>
    </g>
    <g id="text_8">
     <!-- 0.6 -->
     <g transform="translate(451.921632 231.531607) scale(0.21 -0.21)">
      <defs>
       <path id="DejaVuSans-19" d="M 2113 2584 
Q 1688 2584 1439 2293 
Q 1191 2003 1191 1497 
Q 1191 994 1439 701 
Q 1688 409 2113 409 
Q 2538 409 2786 701 
Q 3034 994 3034 1497 
Q 3034 2003 2786 2293 
Q 2538 2584 2113 2584 
z
M 3366 4563 
L 3366 3988 
Q 3128 4100 2886 4159 
Q 2644 4219 2406 4219 
Q 1781 4219 1451 3797 
Q 1122 3375 1075 2522 
Q 1259 2794 1537 2939 
Q 1816 3084 2150 3084 
Q 2853 3084 3261 2657 
Q 3669 2231 3669 1497 
Q 3669 778 3244 343 
Q 2819 -91 2113 -91 
Q 1303 -91 875 529 
Q 447 1150 447 2328 
Q 447 3434 972 4092 
Q 1497 4750 2381 4750 
Q 2619 4750 2861 4703 
Q 3103 4656 3366 4563 
z
" transform="scale(0.015625)"/>
      </defs>
      <use xlink:href="#DejaVuSans-13"/>
      <use xlink:href="#DejaVuSans-11" transform="translate(63.625 0)"/>
      <use xlink:href="#DejaVuSans-19" transform="translate(95.40625 0)"/>
     </g>
    </g>
   </g>
   <g id="xtick_9">
    <g id="line2d_12">
     <path d="M 437.794525 195.443453 
L 443.001212 196.826124 
" style="fill: none; stroke: #000000; stroke-width: 0.8; stroke-linecap: square"/>
    </g>
    <g id="text_9">
     <!-- 0.8 -->
     <g transform="translate(453.469302 189.06547) scale(0.21 -0.21)">
      <defs>
       <path id="DejaVuSans-1b" d="M 2034 2216 
Q 1584 2216 1326 1975 
Q 1069 1734 1069 1313 
Q 1069 891 1326 650 
Q 1584 409 2034 409 
Q 2484 409 2743 651 
Q 3003 894 3003 1313 
Q 3003 1734 2745 1975 
Q 2488 2216 2034 2216 
z
M 1403 2484 
Q 997 2584 770 2862 
Q 544 3141 544 3541 
Q 544 4100 942 4425 
Q 1341 4750 2034 4750 
Q 2731 4750 3128 4425 
Q 3525 4100 3525 3541 
Q 3525 3141 3298 2862 
Q 3072 2584 2669 2484 
Q 3125 2378 3379 2068 
Q 3634 1759 3634 1313 
Q 3634 634 3220 271 
Q 2806 -91 2034 -91 
Q 1263 -91 848 271 
Q 434 634 434 1313 
Q 434 1759 690 2068 
Q 947 2378 1403 2484 
z
M 1172 3481 
Q 1172 3119 1398 2916 
Q 1625 2713 2034 2713 
Q 2441 2713 2670 2916 
Q 2900 3119 2900 3481 
Q 2900 3844 2670 4047 
Q 2441 4250 2034 4250 
Q 1625 4250 1398 4047 
Q 1172 3844 1172 3481 
z
" transform="scale(0.015625)"/>
      </defs>
      <use xlink:href="#DejaVuSans-13"/>
      <use xlink:href="#DejaVuSans-11" transform="translate(63.625 0)"/>
      <use xlink:href="#DejaVuSans-1b" transform="translate(95.40625 0)"/>
     </g>
    </g>
   </g>
   <g id="xtick_10">
    <g id="line2d_13">
     <path d="M 439.233445 152.208251 
L 444.487059 153.563671 
" style="fill: none; stroke: #000000; stroke-width: 0.8; stroke-linecap: square"/>
    </g>
    <g id="text_10">
     <!-- 1.0 -->
     <g transform="translate(455.044043 145.856562) scale(0.21 -0.21)">
      <use xlink:href="#DejaVuSans-14"/>
      <use xlink:href="#DejaVuSans-11" transform="translate(63.625 0)"/>
      <use xlink:href="#DejaVuSans-13" transform="translate(95.40625 0)"/>
     </g>
    </g>
   </g>
  </g>
  <g id="axes_1">
   <g id="Poly3DCollection_1">
    <path d="M 233.478115 305.251166 
L 233.478115 305.251166 
L 296.719431 323.909989 
L 296.719431 323.909989 
z
" clip-path="url(#p32b39ab539)" style="fill: #324880"/>
    <path d="M 195.602622 337.840337 
L 195.602622 337.840337 
L 233.478115 305.251166 
L 233.478115 305.251166 
z
" clip-path="url(#p32b39ab539)" style="fill: #324880"/>
    <path d="M 195.602622 337.840337 
L 233.478115 305.251166 
L 296.719431 323.909989 
L 259.674753 357.251666 
z
" clip-path="url(#p32b39ab539)" style="fill: #3f599f"/>
    <path d="M 195.602622 337.840337 
L 259.674753 357.251666 
L 296.719431 323.909989 
L 233.478115 305.251166 
z
" clip-path="url(#p32b39ab539)" style="fill: #577ddf"/>
    <path d="M 259.674753 357.251666 
L 296.719431 323.909989 
L 296.719431 323.909989 
L 259.674753 357.251666 
z
" clip-path="url(#p32b39ab539)" style="fill: #324880"/>
    <path d="M 195.602622 337.840337 
L 259.674753 357.251666 
L 259.674753 357.251666 
L 195.602622 337.840337 
z
" clip-path="url(#p32b39ab539)" style="fill: #324880"/>
    <path d="M 361.414792 342.997815 
L 361.414792 342.997815 
L 427.614929 362.529613 
L 427.614929 362.529613 
z
" clip-path="url(#p32b39ab539)" style="fill: #324880"/>
    <path d="M 325.24996 377.118368 
L 325.24996 377.118368 
L 361.414792 342.997815 
L 361.414792 342.997815 
z
" clip-path="url(#p32b39ab539)" style="fill: #324880"/>
    <path d="M 325.24996 377.118368 
L 361.414792 342.997815 
L 427.614929 362.529613 
L 392.381762 397.456657 
z
" clip-path="url(#p32b39ab539)" style="fill: #3f599f"/>
    <path d="M 325.24996 377.118368 
L 392.381762 397.456657 
L 427.614929 362.529613 
L 361.414792 342.997815 
z
" clip-path="url(#p32b39ab539)" style="fill: #577ddf"/>
    <path d="M 392.381762 397.456657 
L 427.614929 362.529613 
L 427.614929 362.529613 
L 392.381762 397.456657 
z
" clip-path="url(#p32b39ab539)" style="fill: #324880"/>
    <path d="M 325.24996 377.118368 
L 392.381762 397.456657 
L 392.381762 397.456657 
L 325.24996 377.118368 
z
" clip-path="url(#p32b39ab539)" style="fill: #324880"/>
    <path d="M 115.154048 407.060621 
L 156.192979 371.749536 
L 221.111825 391.95983 
L 180.935357 428.120243 
z
" clip-path="url(#p32b39ab539)" style="fill: #3f599f"/>
    <path d="M 156.192979 371.749536 
L 151.029602 161.928555 
L 218.779747 180.447015 
L 221.111825 391.95983 
z
" clip-path="url(#p32b39ab539)" style="fill: #324880"/>
    <path d="M 287.585191 412.654071 
L 287.585191 412.654071 
L 355.669591 433.849854 
L 355.669591 433.849854 
z
" clip-path="url(#p32b39ab539)" style="fill: #324880"/>
    <path d="M 115.154048 407.060621 
L 108.032258 194.296308 
L 151.029602 161.928555 
L 156.192979 371.749536 
z
" clip-path="url(#p32b39ab539)" style="fill: #648fff"/>
    <path d="M 248.325195 449.694829 
L 248.325195 449.694829 
L 287.585191 412.654071 
L 287.585191 412.654071 
z
" clip-path="url(#p32b39ab539)" style="fill: #324880"/>
    <path d="M 248.325195 449.694829 
L 317.383293 471.803502 
L 355.669591 433.849854 
L 287.585191 412.654071 
z
" clip-path="url(#p32b39ab539)" style="fill: #577ddf"/>
    <path d="M 248.325195 449.694829 
L 287.585191 412.654071 
L 355.669591 433.849854 
L 317.383293 471.803502 
z
" clip-path="url(#p32b39ab539)" style="fill: #3f599f"/>
    <path d="M 180.935357 428.120243 
L 221.111825 391.95983 
L 218.779747 180.447015 
L 176.721369 213.628621 
z
" clip-path="url(#p32b39ab539)" style="fill: #324880"/>
    <path d="M 317.383293 471.803502 
L 355.669591 433.849854 
L 355.669591 433.849854 
L 317.383293 471.803502 
z
" clip-path="url(#p32b39ab539)" style="fill: #324880"/>
    <path d="M 115.154048 407.060621 
L 180.935357 428.120243 
L 176.721369 213.628621 
L 108.032258 194.296308 
z
" clip-path="url(#p32b39ab539)" style="fill: #648fff"/>
    <path d="M 248.325195 449.694829 
L 317.383293 471.803502 
L 317.383293 471.803502 
L 248.325195 449.694829 
z
" clip-path="url(#p32b39ab539)" style="fill: #324880"/>
    <path d="M 108.032258 194.296308 
L 176.721369 213.628621 
L 218.779747 180.447015 
L 151.029602 161.928555 
z
" clip-path="url(#p32b39ab539)" style="fill: #577ddf"/>
   </g>
   <g id="text_11">
    <!-- Real Amplitude (ρ) -->
    <g transform="translate(168.421875 23.156719) scale(0.21 -0.21)">
     <defs>
      <path id="DejaVuSans-35" d="M 2841 2188 
Q 3044 2119 3236 1894 
Q 3428 1669 3622 1275 
L 4263 0 
L 3584 0 
L 2988 1197 
Q 2756 1666 2539 1819 
Q 2322 1972 1947 1972 
L 1259 1972 
L 1259 0 
L 628 0 
L 628 4666 
L 2053 4666 
Q 2853 4666 3247 4331 
Q 3641 3997 3641 3322 
Q 3641 2881 3436 2590 
Q 3231 2300 2841 2188 
z
M 1259 4147 
L 1259 2491 
L 2053 2491 
Q 2509 2491 2742 2702 
Q 2975 2913 2975 3322 
Q 2975 3731 2742 3939 
Q 2509 4147 2053 4147 
L 1259 4147 
z
" transform="scale(0.015625)"/>
      <path id="DejaVuSans-48" d="M 3597 1894 
L 3597 1613 
L 953 1613 
Q 991 1019 1311 708 
Q 1631 397 2203 397 
Q 2534 397 2845 478 
Q 3156 559 3463 722 
L 3463 178 
Q 3153 47 2828 -22 
Q 2503 -91 2169 -91 
Q 1331 -91 842 396 
Q 353 884 353 1716 
Q 353 2575 817 3079 
Q 1281 3584 2069 3584 
Q 2775 3584 3186 3129 
Q 3597 2675 3597 1894 
z
M 3022 2063 
Q 3016 2534 2758 2815 
Q 2500 3097 2075 3097 
Q 1594 3097 1305 2825 
Q 1016 2553 972 2059 
L 3022 2063 
z
" transform="scale(0.015625)"/>
      <path id="DejaVuSans-44" d="M 2194 1759 
Q 1497 1759 1228 1600 
Q 959 1441 959 1056 
Q 959 750 1161 570 
Q 1363 391 1709 391 
Q 2188 391 2477 730 
Q 2766 1069 2766 1631 
L 2766 1759 
L 2194 1759 
z
M 3341 1997 
L 3341 0 
L 2766 0 
L 2766 531 
Q 2569 213 2275 61 
Q 1981 -91 1556 -91 
Q 1019 -91 701 211 
Q 384 513 384 1019 
Q 384 1609 779 1909 
Q 1175 2209 1959 2209 
L 2766 2209 
L 2766 2266 
Q 2766 2663 2505 2880 
Q 2244 3097 1772 3097 
Q 1472 3097 1187 3025 
Q 903 2953 641 2809 
L 641 3341 
Q 956 3463 1253 3523 
Q 1550 3584 1831 3584 
Q 2591 3584 2966 3190 
Q 3341 2797 3341 1997 
z
" transform="scale(0.015625)"/>
      <path id="DejaVuSans-4f" d="M 603 4863 
L 1178 4863 
L 1178 0 
L 603 0 
L 603 4863 
z
" transform="scale(0.015625)"/>
      <path id="DejaVuSans-3" transform="scale(0.015625)"/>
      <path id="DejaVuSans-24" d="M 2188 4044 
L 1331 1722 
L 3047 1722 
L 2188 4044 
z
M 1831 4666 
L 2547 4666 
L 4325 0 
L 3669 0 
L 3244 1197 
L 1141 1197 
L 716 0 
L 50 0 
L 1831 4666 
z
" transform="scale(0.015625)"/>
      <path id="DejaVuSans-50" d="M 3328 2828 
Q 3544 3216 3844 3400 
Q 4144 3584 4550 3584 
Q 5097 3584 5394 3201 
Q 5691 2819 5691 2113 
L 5691 0 
L 5113 0 
L 5113 2094 
Q 5113 2597 4934 2840 
Q 4756 3084 4391 3084 
Q 3944 3084 3684 2787 
Q 3425 2491 3425 1978 
L 3425 0 
L 2847 0 
L 2847 2094 
Q 2847 2600 2669 2842 
Q 2491 3084 2119 3084 
Q 1678 3084 1418 2786 
Q 1159 2488 1159 1978 
L 1159 0 
L 581 0 
L 581 3500 
L 1159 3500 
L 1159 2956 
Q 1356 3278 1631 3431 
Q 1906 3584 2284 3584 
Q 2666 3584 2933 3390 
Q 3200 3197 3328 2828 
z
" transform="scale(0.015625)"/>
      <path id="DejaVuSans-53" d="M 1159 525 
L 1159 -1331 
L 581 -1331 
L 581 3500 
L 1159 3500 
L 1159 2969 
Q 1341 3281 1617 3432 
Q 1894 3584 2278 3584 
Q 2916 3584 3314 3078 
Q 3713 2572 3713 1747 
Q 3713 922 3314 415 
Q 2916 -91 2278 -91 
Q 1894 -91 1617 61 
Q 1341 213 1159 525 
z
M 3116 1747 
Q 3116 2381 2855 2742 
Q 2594 3103 2138 3103 
Q 1681 3103 1420 2742 
Q 1159 2381 1159 1747 
Q 1159 1113 1420 752 
Q 1681 391 2138 391 
Q 2594 391 2855 752 
Q 3116 1113 3116 1747 
z
" transform="scale(0.015625)"/>
      <path id="DejaVuSans-4c" d="M 603 3500 
L 1178 3500 
L 1178 0 
L 603 0 
L 603 3500 
z
M 603 4863 
L 1178 4863 
L 1178 4134 
L 603 4134 
L 603 4863 
z
" transform="scale(0.015625)"/>
      <path id="DejaVuSans-57" d="M 1172 4494 
L 1172 3500 
L 2356 3500 
L 2356 3053 
L 1172 3053 
L 1172 1153 
Q 1172 725 1289 603 
Q 1406 481 1766 481 
L 2356 481 
L 2356 0 
L 1766 0 
Q 1100 0 847 248 
Q 594 497 594 1153 
L 594 3053 
L 172 3053 
L 172 3500 
L 594 3500 
L 594 4494 
L 1172 4494 
z
" transform="scale(0.015625)"/>
      <path id="DejaVuSans-58" d="M 544 1381 
L 544 3500 
L 1119 3500 
L 1119 1403 
Q 1119 906 1312 657 
Q 1506 409 1894 409 
Q 2359 409 2629 706 
Q 2900 1003 2900 1516 
L 2900 3500 
L 3475 3500 
L 3475 0 
L 2900 0 
L 2900 538 
Q 2691 219 2414 64 
Q 2138 -91 1772 -91 
Q 1169 -91 856 284 
Q 544 659 544 1381 
z
M 1991 3584 
L 1991 3584 
z
" transform="scale(0.015625)"/>
      <path id="DejaVuSans-47" d="M 2906 2969 
L 2906 4863 
L 3481 4863 
L 3481 0 
L 2906 0 
L 2906 525 
Q 2725 213 2448 61 
Q 2172 -91 1784 -91 
Q 1150 -91 751 415 
Q 353 922 353 1747 
Q 353 2572 751 3078 
Q 1150 3584 1784 3584 
Q 2172 3584 2448 3432 
Q 2725 3281 2906 2969 
z
M 947 1747 
Q 947 1113 1208 752 
Q 1469 391 1925 391 
Q 2381 391 2643 752 
Q 2906 1113 2906 1747 
Q 2906 2381 2643 2742 
Q 2381 3103 1925 3103 
Q 1469 3103 1208 2742 
Q 947 2381 947 1747 
z
" transform="scale(0.015625)"/>
      <path id="DejaVuSans-b" d="M 1984 4856 
Q 1566 4138 1362 3434 
Q 1159 2731 1159 2009 
Q 1159 1288 1364 580 
Q 1569 -128 1984 -844 
L 1484 -844 
Q 1016 -109 783 600 
Q 550 1309 550 2009 
Q 550 2706 781 3412 
Q 1013 4119 1484 4856 
L 1984 4856 
z
" transform="scale(0.015625)"/>
      <path id="DejaVuSans-355" d="M 863 2875 
Q 1053 3194 1525 3475 
Q 1709 3584 2278 3584 
Q 2916 3584 3314 3078 
Q 3713 2572 3713 1747 
Q 3713 922 3314 415 
Q 2916 -91 2278 -91 
Q 1894 -91 1617 61 
Q 1341 213 1159 525 
L 1159 -1331 
L 581 -1331 
L 581 1716 
Q 581 2438 863 2875 
z
M 3116 1747 
Q 3116 2381 2855 2742 
Q 2594 3103 2138 3103 
Q 1681 3103 1420 2742 
Q 1159 2381 1159 1747 
Q 1159 1113 1420 752 
Q 1681 391 2138 391 
Q 2594 391 2855 752 
Q 3116 1113 3116 1747 
z
" transform="scale(0.015625)"/>
      <path id="DejaVuSans-c" d="M 513 4856 
L 1013 4856 
Q 1481 4119 1714 3412 
Q 1947 2706 1947 2009 
Q 1947 1309 1714 600 
Q 1481 -109 1013 -844 
L 513 -844 
Q 928 -128 1133 580 
Q 1338 1288 1338 2009 
Q 1338 2731 1133 3434 
Q 928 4138 513 4856 
z
" transform="scale(0.015625)"/>
     </defs>
     <use xlink:href="#DejaVuSans-35"/>
     <use xlink:href="#DejaVuSans-48" transform="translate(65 0)"/>
     <use xlink:href="#DejaVuSans-44" transform="translate(126.53125 0)"/>
     <use xlink:href="#DejaVuSans-4f" transform="translate(187.8125 0)"/>
     <use xlink:href="#DejaVuSans-3" transform="translate(215.59375 0)"/>
     <use xlink:href="#DejaVuSans-24" transform="translate(247.375 0)"/>
     <use xlink:href="#DejaVuSans-50" transform="translate(315.78125 0)"/>
     <use xlink:href="#DejaVuSans-53" transform="translate(413.1875 0)"/>
     <use xlink:href="#DejaVuSans-4f" transform="translate(476.671875 0)"/>
     <use xlink:href="#DejaVuSans-4c" transform="translate(504.453125 0)"/>
     <use xlink:href="#DejaVuSans-57" transform="translate(532.234375 0)"/>
     <use xlink:href="#DejaVuSans-58" transform="translate(571.4375 0)"/>
     <use xlink:href="#DejaVuSans-47" transform="translate(634.8125 0)"/>
     <use xlink:href="#DejaVuSans-48" transform="translate(698.296875 0)"/>
     <use xlink:href="#DejaVuSans-3" transform="translate(759.828125 0)"/>
     <use xlink:href="#DejaVuSans-b" transform="translate(791.609375 0)"/>
     <use xlink:href="#DejaVuSans-355" transform="translate(830.625 0)"/>
     <use xlink:href="#DejaVuSans-c" transform="translate(894.109375 0)"/>
    </g>
   </g>
  </g>
  <g id="patch_6">
   <path d="M 583.2 547.556719 
L 1101.6 547.556719 
L 1101.6 29.156719 
L 583.2 29.156719 
z
" style="fill: #ffffff"/>
  </g>
  <g id="pane3d_4">
   <g id="patch_7">
    <path d="M 684.47018 408.013186 
L 807.894133 302.10695 
L 806.143197 98.263449 
L 677.043358 195.17029 
" style="fill: #f2f2f2; opacity: 0.5; stroke: #f2f2f2; stroke-linejoin: miter"/>
   </g>
  </g>
  <g id="pane3d_5">
   <g id="patch_8">
    <path d="M 807.894133 302.10695 
L 1009.954898 361.62606 
L 1016.983588 152.659784 
L 806.143197 98.263449 
" style="fill: #e6e6e6; opacity: 0.5; stroke: #e6e6e6; stroke-linejoin: miter"/>
   </g>
  </g>
  <g id="pane3d_6">
   <g id="patch_9">
    <path d="M 684.47018 408.013186 
L 895.312731 475.63345 
L 1009.954898 361.62606 
L 807.894133 302.10695 
" style="fill: #ececec; opacity: 0.5; stroke: #ececec; stroke-linejoin: miter"/>
   </g>
  </g>
  <g id="grid3d_4">
   <g id="Line3DCollection_4">
    <path d="M 721.252707 419.809876 
L 843.213086 312.510517 
L 842.950167 107.759562 
" style="fill: none; stroke: #b0b0b0; stroke-width: 0.8"/>
    <path d="M 856.163138 463.077607 
L 972.507679 350.59559 
L 977.860439 142.566101 
" style="fill: none; stroke: #b0b0b0; stroke-width: 0.8"/>
   </g>
  </g>
  <g id="grid3d_5">
   <g id="Line3DCollection_5">
    <path d="M 701.552912 176.772564 
L 707.85039 387.951359 
L 917.070812 453.995845 
" style="fill: none; stroke: #b0b0b0; stroke-width: 0.8"/>
    <path d="M 784.124726 114.791281 
L 786.795998 320.2106 
L 990.396083 381.076577 
" style="fill: none; stroke: #b0b0b0; stroke-width: 0.8"/>
   </g>
  </g>
  <g id="grid3d_6">
   <g id="Line3DCollection_6">
    <path d="M 1009.954898 361.62606 
L 807.894133 302.10695 
L 684.47018 408.013186 
" style="fill: none; stroke: #b0b0b0; stroke-width: 0.8"/>
    <path d="M 1011.313068 321.247007 
L 807.555376 262.669035 
L 683.036462 366.924735 
" style="fill: none; stroke: #b0b0b0; stroke-width: 0.8"/>
    <path d="M 1012.694414 280.178951 
L 807.211046 222.582152 
L 681.577601 325.115689 
" style="fill: none; stroke: #b0b0b0; stroke-width: 0.8"/>
    <path d="M 1014.099533 238.404106 
L 806.861002 181.830148 
L 680.092928 282.566922 
" style="fill: none; stroke: #b0b0b0; stroke-width: 0.8"/>
    <path d="M 1015.529044 195.904066 
L 806.505102 140.396332 
L 678.581752 239.25863 
" style="fill: none; stroke: #b0b0b0; stroke-width: 0.8"/>
    <path d="M 1016.983588 152.659784 
L 806.143197 98.263449 
L 677.043358 195.17029 
" style="fill: none; stroke: #b0b0b0; stroke-width: 0.8"/>
   </g>
  </g>
  <g id="axis3d_4">
   <g id="line2d_14">
    <path d="M 684.47018 408.013186 
L 895.312731 475.63345 
" style="fill: none; stroke: #000000; stroke-width: 0.8; stroke-linecap: square"/>
   </g>
   <g id="xtick_11">
    <g id="line2d_15">
     <path d="M 722.291337 418.896101 
L 719.1722 421.640283 
" style="fill: none; stroke: #000000; stroke-width: 0.8; stroke-linecap: square"/>
    </g>
    <g id="text_12">
     <!-- 0 -->
     <g transform="translate(702.936843 454.131521) rotate(-45) scale(0.21 -0.21)">
      <use xlink:href="#DejaVuSans-13"/>
     </g>
    </g>
   </g>
   <g id="xtick_12">
    <g id="line2d_16">
     <path d="M 857.155421 462.118267 
L 854.175392 464.999362 
" style="fill: none; stroke: #000000; stroke-width: 0.8; stroke-linecap: square"/>
    </g>
    <g id="text_13">
     <!-- 1 -->
     <g transform="translate(837.844387 497.775413) rotate(-45) scale(0.21 -0.21)">
      <use xlink:href="#DejaVuSans-14"/>
     </g>
    </g>
   </g>
  </g>
  <g id="axis3d_5">
   <g id="line2d_17">
    <path d="M 1009.954898 361.62606 
L 895.312731 475.63345 
" style="fill: none; stroke: #000000; stroke-width: 0.8; stroke-linecap: square"/>
   </g>
   <g id="xtick_13">
    <g id="line2d_18">
     <path d="M 915.333477 453.447421 
L 920.548678 455.0937 
" style="fill: none; stroke: #000000; stroke-width: 0.8; stroke-linecap: square"/>
    </g>
    <g id="text_14">
     <!-- 0 -->
     <g transform="translate(928.124196 468.213852) rotate(-337.5) scale(0.21 -0.21)">
      <use xlink:href="#DejaVuSans-13"/>
     </g>
    </g>
   </g>
   <g id="xtick_14">
    <g id="line2d_19">
     <path d="M 988.707938 380.571908 
L 993.775354 382.086805 
" style="fill: none; stroke: #000000; stroke-width: 0.8; stroke-linecap: square"/>
    </g>
    <g id="text_15">
     <!-- 1 -->
     <g transform="translate(1001.060275 394.834436) rotate(-337.5) scale(0.21 -0.21)">
      <use xlink:href="#DejaVuSans-14"/>
     </g>
    </g>
   </g>
  </g>
  <g id="axis3d_6">
   <g id="line2d_20">
    <path d="M 1009.954898 361.62606 
L 1016.983588 152.659784 
" style="fill: none; stroke: #000000; stroke-width: 0.8; stroke-linecap: square"/>
   </g>
   <g id="xtick_15">
    <g id="line2d_21">
     <path d="M 1008.280182 361.132755 
L 1013.307251 362.61353 
" style="fill: none; stroke: #000000; stroke-width: 0.8; stroke-linecap: square"/>
    </g>
    <g id="text_16">
     <!-- 0.0 -->
     <g transform="translate(1023.434237 354.660102) scale(0.21 -0.21)">
      <use xlink:href="#DejaVuSans-13"/>
      <use xlink:href="#DejaVuSans-11" transform="translate(63.625 0)"/>
      <use xlink:href="#DejaVuSans-13" transform="translate(95.40625 0)"/>
     </g>
    </g>
   </g>
   <g id="xtick_16">
    <g id="line2d_22">
     <path d="M 1009.623792 320.761359 
L 1014.694594 322.219156 
" style="fill: none; stroke: #000000; stroke-width: 0.8; stroke-linecap: square"/>
    </g>
    <g id="text_17">
     <!-- 0.2 -->
     <g transform="translate(1024.904757 314.310883) scale(0.21 -0.21)">
      <use xlink:href="#DejaVuSans-13"/>
      <use xlink:href="#DejaVuSans-11" transform="translate(63.625 0)"/>
      <use xlink:href="#DejaVuSans-15" transform="translate(95.40625 0)"/>
     </g>
    </g>
   </g>
   <g id="xtick_17">
    <g id="line2d_23">
     <path d="M 1010.990321 279.701295 
L 1016.105624 281.13511 
" style="fill: none; stroke: #000000; stroke-width: 0.8; stroke-linecap: square"/>
    </g>
    <g id="text_18">
     <!-- 0.4 -->
     <g transform="translate(1026.40034 273.273962) scale(0.21 -0.21)">
      <use xlink:href="#DejaVuSans-13"/>
      <use xlink:href="#DejaVuSans-11" transform="translate(63.625 0)"/>
      <use xlink:href="#DejaVuSans-17" transform="translate(95.40625 0)"/>
     </g>
    </g>
   </g>
   <g id="xtick_18">
    <g id="line2d_24">
     <path d="M 1012.380361 237.93479 
L 1017.540952 239.343577 
" style="fill: none; stroke: #000000; stroke-width: 0.8; stroke-linecap: square"/>
    </g>
    <g id="text_19">
     <!-- 0.6 -->
     <g transform="translate(1027.921632 231.531607) scale(0.21 -0.21)">
      <use xlink:href="#DejaVuSans-13"/>
      <use xlink:href="#DejaVuSans-11" transform="translate(63.625 0)"/>
      <use xlink:href="#DejaVuSans-19" transform="translate(95.40625 0)"/>
     </g>
    </g>
   </g>
   <g id="xtick_19">
    <g id="line2d_25">
     <path d="M 1013.794525 195.443453 
L 1019.001212 196.826124 
" style="fill: none; stroke: #000000; stroke-width: 0.8; stroke-linecap: square"/>
    </g>
    <g id="text_20">
     <!-- 0.8 -->
     <g transform="translate(1029.469302 189.06547) scale(0.21 -0.21)">
      <use xlink:href="#DejaVuSans-13"/>
      <use xlink:href="#DejaVuSans-11" transform="translate(63.625 0)"/>
      <use xlink:href="#DejaVuSans-1b" transform="translate(95.40625 0)"/>
     </g>
    </g>
   </g>
   <g id="xtick_20">
    <g id="line2d_26">
     <path d="M 1015.233445 152.208251 
L 1020.487059 153.563671 
" style="fill: none; stroke: #000000; stroke-width: 0.8; stroke-linecap: square"/>
    </g>
    <g id="text_21">
     <!-- 1.0 -->
     <g transform="translate(1031.044043 145.856562) scale(0.21 -0.21)">
      <use xlink:href="#DejaVuSans-14"/>
      <use xlink:href="#DejaVuSans-11" transform="translate(63.625 0)"/>
      <use xlink:href="#DejaVuSans-13" transform="translate(95.40625 0)"/>
     </g>
    </g>
   </g>
  </g>
  <g id="axes_2">
   <g id="Poly3DCollection_2">
    <path d="M 809.478115 305.251166 
L 809.478115 305.251166 
L 872.719431 323.909989 
L 872.719431 323.909989 
z
" clip-path="url(#p01d4b196a4)" style="fill: #324880"/>
    <path d="M 771.602622 337.840337 
L 771.602622 337.840337 
L 809.478115 305.251166 
L 809.478115 305.251166 
z
" clip-path="url(#p01d4b196a4)" style="fill: #324880"/>
    <path d="M 771.602622 337.840337 
L 809.478115 305.251166 
L 872.719431 323.909989 
L 835.674753 357.251666 
z
" clip-path="url(#p01d4b196a4)" style="fill: #324880"/>
    <path d="M 771.602622 337.840337 
L 835.674753 357.251666 
L 872.719431 323.909989 
L 809.478115 305.251166 
z
" clip-path="url(#p01d4b196a4)" style="fill: #648fff"/>
    <path d="M 835.674753 357.251666 
L 872.719431 323.909989 
L 872.719431 323.909989 
L 835.674753 357.251666 
z
" clip-path="url(#p01d4b196a4)" style="fill: #324880"/>
    <path d="M 771.602622 337.840337 
L 835.674753 357.251666 
L 835.674753 357.251666 
L 771.602622 337.840337 
z
" clip-path="url(#p01d4b196a4)" style="fill: #324880"/>
    <path d="M 937.414792 342.997815 
L 937.414792 342.997815 
L 1003.614929 362.529613 
L 1003.614929 362.529613 
z
" clip-path="url(#p01d4b196a4)" style="fill: #324880"/>
    <path d="M 901.24996 377.118368 
L 901.24996 377.118368 
L 937.414792 342.997815 
L 937.414792 342.997815 
z
" clip-path="url(#p01d4b196a4)" style="fill: #324880"/>
    <path d="M 901.24996 377.118368 
L 937.414792 342.997815 
L 1003.614929 362.529613 
L 968.381762 397.456657 
z
" clip-path="url(#p01d4b196a4)" style="fill: #324880"/>
    <path d="M 901.24996 377.118368 
L 968.381762 397.456657 
L 1003.614929 362.529613 
L 937.414792 342.997815 
z
" clip-path="url(#p01d4b196a4)" style="fill: #648fff"/>
    <path d="M 968.381762 397.456657 
L 1003.614929 362.529613 
L 1003.614929 362.529613 
L 968.381762 397.456657 
z
" clip-path="url(#p01d4b196a4)" style="fill: #324880"/>
    <path d="M 732.192979 371.749536 
L 732.192979 371.749536 
L 797.111825 391.95983 
L 797.111825 391.95983 
z
" clip-path="url(#p01d4b196a4)" style="fill: #324880"/>
    <path d="M 901.24996 377.118368 
L 968.381762 397.456657 
L 968.381762 397.456657 
L 901.24996 377.118368 
z
" clip-path="url(#p01d4b196a4)" style="fill: #324880"/>
    <path d="M 691.154048 407.060621 
L 691.154048 407.060621 
L 732.192979 371.749536 
L 732.192979 371.749536 
z
" clip-path="url(#p01d4b196a4)" style="fill: #324880"/>
    <path d="M 691.154048 407.060621 
L 756.935357 428.120243 
L 797.111825 391.95983 
L 732.192979 371.749536 
z
" clip-path="url(#p01d4b196a4)" style="fill: #648fff"/>
    <path d="M 691.154048 407.060621 
L 732.192979 371.749536 
L 797.111825 391.95983 
L 756.935357 428.120243 
z
" clip-path="url(#p01d4b196a4)" style="fill: #324880"/>
    <path d="M 756.935357 428.120243 
L 797.111825 391.95983 
L 797.111825 391.95983 
L 756.935357 428.120243 
z
" clip-path="url(#p01d4b196a4)" style="fill: #324880"/>
    <path d="M 691.154048 407.060621 
L 756.935357 428.120243 
L 756.935357 428.120243 
L 691.154048 407.060621 
z
" clip-path="url(#p01d4b196a4)" style="fill: #324880"/>
    <path d="M 863.585191 412.654071 
L 863.585191 412.654071 
L 931.669591 433.849854 
L 931.669591 433.849854 
z
" clip-path="url(#p01d4b196a4)" style="fill: #324880"/>
    <path d="M 824.325195 449.694829 
L 824.325195 449.694829 
L 863.585191 412.654071 
L 863.585191 412.654071 
z
" clip-path="url(#p01d4b196a4)" style="fill: #324880"/>
    <path d="M 824.325195 449.694829 
L 893.383293 471.803502 
L 931.669591 433.849854 
L 863.585191 412.654071 
z
" clip-path="url(#p01d4b196a4)" style="fill: #648fff"/>
    <path d="M 824.325195 449.694829 
L 863.585191 412.654071 
L 931.669591 433.849854 
L 893.383293 471.803502 
z
" clip-path="url(#p01d4b196a4)" style="fill: #324880"/>
    <path d="M 893.383293 471.803502 
L 931.669591 433.849854 
L 931.669591 433.849854 
L 893.383293 471.803502 
z
" clip-path="url(#p01d4b196a4)" style="fill: #324880"/>
    <path d="M 824.325195 449.694829 
L 893.383293 471.803502 
L 893.383293 471.803502 
L 824.325195 449.694829 
z
" clip-path="url(#p01d4b196a4)" style="fill: #324880"/>
   </g>
   <g id="text_22">
    <!-- Imaginary Amplitude (ρ) -->
    <g transform="translate(714.096563 23.156719) scale(0.21 -0.21)">
     <defs>
      <path id="DejaVuSans-2c" d="M 628 4666 
L 1259 4666 
L 1259 0 
L 628 0 
L 628 4666 
z
" transform="scale(0.015625)"/>
      <path id="DejaVuSans-4a" d="M 2906 1791 
Q 2906 2416 2648 2759 
Q 2391 3103 1925 3103 
Q 1463 3103 1205 2759 
Q 947 2416 947 1791 
Q 947 1169 1205 825 
Q 1463 481 1925 481 
Q 2391 481 2648 825 
Q 2906 1169 2906 1791 
z
M 3481 434 
Q 3481 -459 3084 -895 
Q 2688 -1331 1869 -1331 
Q 1566 -1331 1297 -1286 
Q 1028 -1241 775 -1147 
L 775 -588 
Q 1028 -725 1275 -790 
Q 1522 -856 1778 -856 
Q 2344 -856 2625 -561 
Q 2906 -266 2906 331 
L 2906 616 
Q 2728 306 2450 153 
Q 2172 0 1784 0 
Q 1141 0 747 490 
Q 353 981 353 1791 
Q 353 2603 747 3093 
Q 1141 3584 1784 3584 
Q 2172 3584 2450 3431 
Q 2728 3278 2906 2969 
L 2906 3500 
L 3481 3500 
L 3481 434 
z
" transform="scale(0.015625)"/>
      <path id="DejaVuSans-51" d="M 3513 2113 
L 3513 0 
L 2938 0 
L 2938 2094 
Q 2938 2591 2744 2837 
Q 2550 3084 2163 3084 
Q 1697 3084 1428 2787 
Q 1159 2491 1159 1978 
L 1159 0 
L 581 0 
L 581 3500 
L 1159 3500 
L 1159 2956 
Q 1366 3272 1645 3428 
Q 1925 3584 2291 3584 
Q 2894 3584 3203 3211 
Q 3513 2838 3513 2113 
z
" transform="scale(0.015625)"/>
      <path id="DejaVuSans-55" d="M 2631 2963 
Q 2534 3019 2420 3045 
Q 2306 3072 2169 3072 
Q 1681 3072 1420 2755 
Q 1159 2438 1159 1844 
L 1159 0 
L 581 0 
L 581 3500 
L 1159 3500 
L 1159 2956 
Q 1341 3275 1631 3429 
Q 1922 3584 2338 3584 
Q 2397 3584 2469 3576 
Q 2541 3569 2628 3553 
L 2631 2963 
z
" transform="scale(0.015625)"/>
      <path id="DejaVuSans-5c" d="M 2059 -325 
Q 1816 -950 1584 -1140 
Q 1353 -1331 966 -1331 
L 506 -1331 
L 506 -850 
L 844 -850 
Q 1081 -850 1212 -737 
Q 1344 -625 1503 -206 
L 1606 56 
L 191 3500 
L 800 3500 
L 1894 763 
L 2988 3500 
L 3597 3500 
L 2059 -325 
z
" transform="scale(0.015625)"/>
     </defs>
     <use xlink:href="#DejaVuSans-2c"/>
     <use xlink:href="#DejaVuSans-50" transform="translate(29.5 0)"/>
     <use xlink:href="#DejaVuSans-44" transform="translate(126.90625 0)"/>
     <use xlink:href="#DejaVuSans-4a" transform="translate(188.1875 0)"/>
     <use xlink:href="#DejaVuSans-4c" transform="translate(251.671875 0)"/>
     <use xlink:href="#DejaVuSans-51" transform="translate(279.453125 0)"/>
     <use xlink:href="#DejaVuSans-44" transform="translate(342.828125 0)"/>
     <use xlink:href="#DejaVuSans-55" transform="translate(404.109375 0)"/>
     <use xlink:href="#DejaVuSans-5c" transform="translate(445.21875 0)"/>
     <use xlink:href="#DejaVuSans-3" transform="translate(504.40625 0)"/>
     <use xlink:href="#DejaVuSans-24" transform="translate(536.1875 0)"/>
     <use xlink:href="#DejaVuSans-50" transform="translate(604.59375 0)"/>
     <use xlink:href="#DejaVuSans-53" transform="translate(702 0)"/>
     <use xlink:href="#DejaVuSans-4f" transform="translate(765.484375 0)"/>
     <use xlink:href="#DejaVuSans-4c" transform="translate(793.265625 0)"/>
     <use xlink:href="#DejaVuSans-57" transform="translate(821.046875 0)"/>
     <use xlink:href="#DejaVuSans-58" transform="translate(860.25 0)"/>
     <use xlink:href="#DejaVuSans-47" transform="translate(923.625 0)"/>
     <use xlink:href="#DejaVuSans-48" transform="translate(987.109375 0)"/>
     <use xlink:href="#DejaVuSans-3" transform="translate(1048.640625 0)"/>
     <use xlink:href="#DejaVuSans-b" transform="translate(1080.421875 0)"/>
     <use xlink:href="#DejaVuSans-355" transform="translate(1119.4375 0)"/>
     <use xlink:href="#DejaVuSans-c" transform="translate(1182.921875 0)"/>
    </g>
   </g>
  </g>
 </g>
 <defs>
  <clipPath id="p32b39ab539">
   <rect x="7.2" y="29.156719" width="518.4" height="518.4"/>
  </clipPath>
  <clipPath id="p01d4b196a4">
   <rect x="583.2" y="29.156719" width="518.4" height="518.4"/>
  </clipPath>
 </defs>
</svg>
