<?xml version="1.0" encoding="utf-8" standalone="no"?>
<!DOCTYPE svg PUBLIC "-//W3C//DTD SVG 1.1//EN"
  "http://www.w3.org/Graphics/SVG/1.1/DTD/svg11.dtd">
<svg xmlns:xlink="http://www.w3.org/1999/xlink" width="213.984pt" height="213.984pt" viewBox="0 0 213.984 213.984" xmlns="http://www.w3.org/2000/svg" version="1.1">
 <metadata>
  <rdf:RDF xmlns:dc="http://purl.org/dc/elements/1.1/" xmlns:cc="http://creativecommons.org/ns#" xmlns:rdf="http://www.w3.org/1999/02/22-rdf-syntax-ns#">
   <cc:Work>
    <dc:type rdf:resource="http://purl.org/dc/dcmitype/StillImage"/>
    <dc:format>image/svg+xml</dc:format>
    <dc:creator>
     <cc:Agent>
      <dc:title>Matplotlib v3.11.1, https://matplotlib.org/</dc:title>
     </cc:Agent>
    </dc:creator>
   </cc:Work>
  </rdf:RDF>
 </metadata>
 <defs>
  <style type="text/css">*{stroke-linejoin: round; stroke-linecap: butt}</style>
 </defs>
 <g id="figure_1">
  <g id="patch_1">
   <path d="M 0 213.984 
L 213.984 213.984 
L 213.984 0 
L 0 0 
z
" style="fill: #ffffff"/>
  </g>
  <g id="axes_1">
   <g id="line2d_1">
    <path d="M 40.464 40.464 
L 106.992 40.464 
" clip-path="url(#pf876645d65)" style="fill: none; stroke: #555555; stroke-width: 4; stroke-linecap: square"/>
   </g>
   <g id="line2d_2">
    <path d="M 106.992 40.464 
L 173.52 40.464 
" clip-path="url(#pf876645d65)" style="fill: none; stroke: #555555; stroke-width: 4; stroke-linecap: square"/>
   </g>
   <g id="line2d_3">
    <path d="M 106.992 40.464 
L 106.992 106.992 
" clip-path="url(#pf876645d65)" style="fill: none; stroke: #555555; stroke-width: 4; stroke-linecap: square"/>
   </g>
   <g id="line2d_4">
    <path d="M 106.992 106.992 
L 106.992 173.52 
" clip-path="url(#pf876645d65)" style="fill: none; stroke: #555555; stroke-width: 4; stroke-linecap: square"/>
   </g>
   <g id="patch_2">
    <path d="M 40.464 56.43072 
C 44.698424 56.43072 48.759986 54.748366 51.754176 51.754176 
C 54.748366 48.759986 56.43072 44.698424 56.43072 40.464 
C 56.43072 36.229576 54.748366 32.168014 51.754176 29.173824 
C 48.759986 26.179634 44.698424 24.49728 40.464 24.49728 
C 36.229576 24.49728 32.168014 26.179634 29.173824 29.173824 
C 26.179634 32.168014 24.49728 36.229576 24.49728 40.464 
C 24.49728 44.698424 26.179634 48.759986 29.173824 51.754176 
C 32.168014 54.748366 36.229576 56.43072 40.464 56.43072 
z
" clip-path="url(#pf876645d65)" style="fill: #9ecae1; stroke: #000000; stroke-linejoin: miter"/>
   </g>
   <g id="patch_3">
    <path d="M 106.992 56.43072 
C 111.226424 56.43072 115.287986 54.748366 118.282176 51.754176 
C 121.276366 48.759986 122.95872 44.698424 122.95872 40.464 
C 122.95872 36.229576 121.276366 32.168014 118.282176 29.173824 
C 115.287986 26.179634 111.226424 24.49728 106.992 24.49728 
C 102.757576 24.49728 98.696014 26.179634 95.701824 29.173824 
C 92.707634 32.168014 91.02528 36.229576 91.02528 40.464 
C 91.02528 44.698424 92.707634 48.759986 95.701824 51.754176 
C 98.696014 54.748366 102.757576 56.43072 106.992 56.43072 
z
" clip-path="url(#pf876645d65)" style="fill: #9ecae1; stroke: #000000; stroke-linejoin: miter"/>
   </g>
   <g id="patch_4">
    <path d="M 173.52 56.43072 
C 177.754424 56.43072 181.815986 54.748366 184.810176 51.754176 
C 187.804366 48.759986 189.48672 44.698424 189.48672 40.464 
C 189.48672 36.229576 187.804366 32.168014 184.810176 29.173824 
C 181.815986 26.179634 177.754424 24.49728 173.52 24.49728 
C 169.285576 24.49728 165.224014 26.179634 162.229824 29.173824 
C 159.235634 32.168014 157.55328 36.229576 157.55328 40.464 
C 157.55328 44.698424 159.235634 48.759986 162.229824 51.754176 
C 165.224014 54.748366 169.285576 56.43072 173.52 56.43072 
z
" clip-path="url(#pf876645d65)" style="fill: #9ecae1; stroke: #000000; stroke-linejoin: miter"/>
   </g>
   <g id="patch_5">
    <path d="M 106.992 122.95872 
C 111.226424 122.95872 115.287986 121.276366 118.282176 118.282176 
C 121.276366 115.287986 122.95872 111.226424 122.95872 106.992 
C 122.95872 102.757576 121.276366 98.696014 118.282176 95.701824 
C 115.287986 92.707634 111.226424 91.02528 106.992 91.02528 
C 102.757576 91.02528 98.696014 92.707634 95.701824 95.701824 
C 92.707634 98.696014 91.02528 102.757576 91.02528 106.992 
C 91.02528 111.226424 92.707634 115.287986 95.701824 118.282176 
C 98.696014 121.276366 102.757576 122.95872 106.992 122.95872 
z
" clip-path="url(#pf876645d65)" style="fill: #9ecae1; stroke: #000000; stroke-linejoin: miter"/>
   </g>
   <g id="patch_6">
    <path d="M 106.992 189.48672 
C 111.226424 189.48672 115.287986 187.804366 118.282176 184.810176 
C 121.276366 181.815986 122.95872 177.754424 122.95872 173.52 
C 122.95872 169.285576 121.276366 165.224014 118.282176 162.229824 
C 115.287986 159.235634 111.226424 157.55328 106.992 157.55328 
C 102.757576 157.55328 98.696014 159.235634 95.701824 162.229824 
C 92.707634 165.224014 91.02528 169.285576 91.02528 173.52 
C 91.02528 177.754424 92.707634 181.815986 95.701824 184.810176 
C 98.696014 187.804366 102.757576 189.48672 106.992 189.48672 
z
" clip-path="url(#pf876645d65)" style="fill: #9ecae1; stroke: #000000; stroke-linejoin: miter"/>
   </g>
   <g id="text_1">
    <!-- 0 -->
    <g transform="translate(36.6465 43.581188) scale(0.12 -0.12)">
     <defs>
      <path id="DejaVuSans-13" d="M 2034 4250 
Q 1547 4250 1301 3770 
Q 1056 3291 1056 2328 
Q 1056 1369 1301 889 
Q 1547 409 2034 409 
Q 2525 409 2770 889 
Q 3016 1369 3016 2328 
Q 3016 3291 2770 3770 
Q 2525 4250 2034 4250 
z
M 2034 4750 
Q 2819 4750 3233 4129 
Q 3647 3509 3647 2328 
Q 3647 1150 3233 529 
Q 2819 -91 2034 -91 
Q 1250 -91 836 529 
Q 422 1150 422 2328 
Q 422 3509 836 4129 
Q 1250 4750 2034 4750 
z
" transform="scale(0.015625)"/>
     </defs>
     <use xlink:href="#DejaVuSans-13"/>
    </g>
   </g>
   <g id="text_2">
    <!-- 1 -->
    <g transform="translate(103.1745 43.581188) scale(0.12 -0.12)">
     <defs>
      <path id="DejaVuSans-14" d="M 794 531 
L 1825 531 
L 1825 4091 
L 703 3866 
L 703 4441 
L 1819 4666 
L 2450 4666 
L 2450 531 
L 3481 531 
L 3481 0 
L 794 0 
L 794 531 
z
" transform="scale(0.015625)"/>
     </defs>
     <use xlink:href="#DejaVuSans-14"/>
    </g>
   </g>
   <g id="text_3">
    <!-- 2 -->
    <g transform="translate(169.7025 43.581188) scale(0.12 -0.12)">
     <defs>
      <path id="DejaVuSans-15" d="M 1228 531 
L 3431 531 
L 3431 0 
L 469 0 
L 469 531 
Q 828 903 1448 1529 
Q 2069 2156 2228 2338 
Q 2531 2678 2651 2914 
Q 2772 3150 2772 3378 
Q 2772 3750 2511 3984 
Q 2250 4219 1831 4219 
Q 1534 4219 1204 4116 
Q 875 4013 500 3803 
L 500 4441 
Q 881 4594 1212 4672 
Q 1544 4750 1819 4750 
Q 2544 4750 2975 4387 
Q 3406 4025 3406 3419 
Q 3406 3131 3298 2873 
Q 3191 2616 2906 2266 
Q 2828 2175 2409 1742 
Q 1991 1309 1228 531 
z
" transform="scale(0.015625)"/>
     </defs>
     <use xlink:href="#DejaVuSans-15"/>
    </g>
   </g>
   <g id="text_4">
    <!-- 3 -->
    <g transform="translate(103.1745 110.109188) scale(0.12 -0.12)">
     <defs>
      <path id="DejaVuSans-16" d="M 2597 2516 
Q 3050 2419 3304 2112 
Q 3559 1806 3559 1356 
Q 3559 666 3084 287 
Q 2609 -91 1734 -91 
Q 1441 -91 1130 -33 
Q 819 25 488 141 
L 488 750 
Q 750 597 1062 519 
Q 1375 441 1716 441 
Q 2309 441 2620 675 
Q 2931 909 2931 1356 
Q 2931 1769 2642 2001 
Q 2353 2234 1838 2234 
L 1294 2234 
L 1294 2753 
L 1863 2753 
Q 2328 2753 2575 2939 
Q 2822 3125 2822 3475 
Q 2822 3834 2567 4026 
Q 2313 4219 1838 4219 
Q 1578 4219 1281 4162 
Q 984 4106 628 3988 
L 628 4550 
Q 988 4650 1302 4700 
Q 1616 4750 1894 4750 
Q 2613 4750 3031 4423 
Q 3450 4097 3450 3541 
Q 3450 3153 3228 2886 
Q 3006 2619 2597 2516 
z
" transform="scale(0.015625)"/>
     </defs>
     <use xlink:href="#DejaVuSans-16"/>
    </g>
   </g>
   <g id="text_5">
    <!-- 4 -->
    <g transform="translate(103.1745 176.637188) scale(0.12 -0.12)">
     <defs>
      <path id="DejaVuSans-17" d="M 2419 4116 
L 825 1625 
L 2419 1625 
L 2419 4116 
z
M 2253 4666 
L 3047 4666 
L 3047 1625 
L 3713 1625 
L 3713 1100 
L 3047 1100 
L 3047 0 
L 2419 0 
L 2419 1100 
L 313 1100 
L 313 1709 
L 2253 4666 
z
" transform="scale(0.015625)"/>
     </defs>
     <use xlink:href="#DejaVuSans-17"/>
    </g>
   </g>
  </g>
 </g>
 <defs>
  <clipPath id="pf876645d65">
   <rect x="7.2" y="7.2" width="199.584" height="199.584"/>
  </clipPath>
 </defs>
</svg>
